<?xml version="1.0" encoding="UTF-8"?><svg id="Layer_2" xmlns="http://www.w3.org/2000/svg" viewBox="0 0 245.63 177.95"><defs><style>.cls-1{fill:#aa8a52;}.cls-2{fill:#232120;}</style></defs><g id="Layer_1-2"><path class="cls-2" d="M122.87,122.94l3.73,23.85c-5.2,2.47-11.66,5.3-17.12,7.04l-9.73-27.24,20.9-9.18,6.36-14.12-30.03,13.02-6.31,14.18-.07.06,6,18.55c-3.88,1.57-8.97,3.62-12.7,4.72l-.64-1.62,4.73-11.33s-13.05,8.38-23.82,12.16l-7.83-48.25-8.14,11.35,8.12,51.2c1,0,9.67-2.89,9.67-2.94h0c6.41-2.36,11.82-4.47,13.97-6.3l3.26,8.09,4.89-1.79h0c1.26-.53,8.3-3.47,11.66-7.62l4.47,10.98c4.15-1.47,8.41-2.94,9.46-3.36h0c7.35-2.73,13.4-5.1,14.71-7.09.47-.74,1.31-2.52,1.79-3.47l5.73-11.66-4.89-30.58-8.14,11.35Z"/><path class="cls-2" d="M150.08,149.05l-6.04-37.46-8.14,11.35,6.62,42.55,1.58-.63c-.26-2.57.05-3.52,1-5.46,1.26-2.63,4.99-10.24,4.99-10.35Z"/><path class="cls-2" d="M25.47,134.73l-6.97,1.69c-8.83,2.13-15.34,9.62-16.24,18.66l.07,10.61,17.29-5.6,1.32,8.54c1,0,10.2-3.09,10.2-3.14,3.21-1.18,7.6-2.71,10.02-3.76,1.21-.52,1.78-.9,2.17-1.25.72-.64,1.33-1.41,1.84-2.23l.9-1.45s.02-.03.03-.05c1.59-2.56,2.53-5.47,2.86-8.47l.46-4.06s-9.86,6.33-20.63,10.11l-3.32-19.6ZM12.1,153.09c-.04-.29-.06-.58-.06-.87,0-2.92,2.11-5.48,5.07-5.97l1.26-.21.87,5.15-7.14,1.9Z"/><path class="cls-2" d="M73.36,45.21h6.99c1.66,0,3,1.34,3,3v6.99h-9.99v-9.99h0Z" transform="translate(-.01 100.4) rotate(-65.29)"/><path class="cls-2" d="M62.52,49.22h6.99c1.66,0,3,1.34,3,3v6.99h-9.99v-9.99h0Z" transform="translate(144.98 15.54) rotate(114.71)"/><path class="cls-2" d="M76.48,118.91h6.99c1.66,0,3,1.34,3,3v6.99h-9.99v-9.99h0Z" transform="translate(-65.14 146.12) rotate(-65.29)"/><path class="cls-2" d="M65.64,122.92h6.99c1.66,0,3,1.34,3,3v6.99h-9.99v-9.99h0Z" transform="translate(216.36 117.21) rotate(114.71)"/><path class="cls-2" d="M12.47,120.36h6.99c1.66,0,3,1.34,3,3v6.99h-9.99v-9.99h0Z" transform="translate(-103.71 88.82) rotate(-65.29)"/><path class="cls-2" d="M1.63,124.36h6.99c1.66,0,3,1.34,3,3v6.99H1.63v-9.99h0Z" transform="translate(126.91 177.41) rotate(114.71)"/><path class="cls-2" d="M87.05,91.68h6.99c1.66,0,3,1.34,3,3v6.99h-9.99v-9.99h0Z" transform="translate(-34.25 139.88) rotate(-65.29)"/><path class="cls-2" d="M36.57,166.33h6.99c1.66,0,3,1.34,3,3v6.99h-9.99v-9.99h0Z" transform="translate(-131.45 137.47) rotate(-65.29)"/><path class="cls-2" d="M27.61,115.89l7.31-11.36c1.59-.63,2.61-1.89,3.55-3.25l1.64.7-8.58,13.17c-1.4.52-2.66.62-3.92.74Z"/><path class="cls-2" d="M145.65,65.48c-1.56-7.21-7.54-7.15-13.08-7.21l-2.91,13.63c-1.12.56-9.33,3.74-12.63,4.69-5.03,1.63-12.06,4.33-14.29,4.33-.37,0-.61-.08-.68-.24l-.11-.28-1.73.84,4.75,11.12s6.59-.67,16.54-4.53c5-1.71,9.71-3.63,13.4-5.42,3.69-1.79,6.35-3.44,7.28-4.58,2.18-2.68,3.91-10.34,3.47-12.35Z"/><path class="cls-2" d="M120.95,64.42c.48-4.26.97-8.53,1.45-12.79-1.71.67-4.45,1.51-7.82,1.42-5.97-.16-7.92-3.61-12.86-2.81-3.85.62-6.46,3.25-7.15,3.97-2.06,2.13-2.94,4.42-3.32,5.67l.18,9.5,2.23-1.15c.3-.15.48-.46.48-.8v-1.86c-.01-.35.15-.68.44-.89,1.97-1.45,3.75-2.44,5.09-3.09,1.38-.67,2.67-1.3,4.47-1.72,1.52-.35,5.84-1.13,6.32-.07.72,1.58-7.22,6.92-13.14,10.17-5.04,2.77-11.39,5.53-19.15,7.48l1.45-2.58,5.26-10.68s-16.19,8.65-27.97,12.36c1.8-3.28,3.04-9.32,2.65-11.07-1.56-7.21-7.54-7.15-13.08-7.21l-2.91,13.63c-1.12.56-9.33,3.74-12.63,4.69-.69.17-1.24.24-1.69.24-1.27,0-1.69-.55-1.77-.8.72-1.06,1.39-2.12,2.07-3.07l4.86-7.32c2.79-6.48-8.05-13.8-14.81-11.23-1.9,1.12-10.06,15.93-10.06,15.93,6.26-.23,10.34,1.79,13.08,4.47l-15.18,22.93c-2.58,3.9-1.56,9.19,2.34,11.75,8.94,5.87,17.65,6.44,18.15,6.44l7.43-11.23c-8.35-.32-14.85-3.62-18.41-5.92-1.76-1.13-2.24-3.49-1.09-5.24,2.64-4.02,6.41-9.66,9.84-14.83,1.34,2.46,2.01,4.69,2.4,5.75,1.01,2.79.22,1.06,1.56,4.53,0,0,1.9.28,5.75-1.17,3.38-1.15,6.64-2.41,9.53-3.65,2.9-1.25,5.44-2.49,7.4-3.61l3.69,9.16,5.2-1.9c3.41-1.26,6.55-2.45,9.13-3.57,2.4-1.04,4.29-2.01,5.47-2.93,1.24,2.8,2.48,5.6,3.73,8.4,5.74-1.68,12.61-4.23,19.96-8.15,5.51-2.94,10.17-6.05,14.03-8.97,2.47-2.73,4.94-5.46,7.41-8.18Z"/><polygon class="cls-1" points="230.41 5.54 194.73 35.21 189.08 61.27 182.18 45.65 155.66 91.58 167.88 119.84 219.27 45.65 245.63 0 230.41 5.54"/><path class="cls-1" d="M221.29,91.58l-16.32,28.26-28.14,13.96-12.87,22.29c-5.13,1.33-9.4,4.8-11.79,9.4h-2.09l69.19-119.84,1.59,36.18-19.65,9.75h20.08Z"/></g></svg>