<?xml version="1.0" encoding="UTF-8"?><svg id="Layer_2" xmlns="http://www.w3.org/2000/svg" viewBox="0 0 230.43 166.94"><defs><style>.cls-1{fill:#f6f3ed;}</style></defs><g id="Layer_1-2"><path class="cls-1" d="M115.27,115.34l3.5,22.38c-4.88,2.32-10.93,4.97-16.06,6.6l-9.13-25.55,19.61-8.61,5.96-13.24-28.17,12.22-5.92,13.3-.07.05,5.63,17.4c-3.64,1.48-8.42,3.4-11.91,4.43l-.6-1.52,4.44-10.63s-12.24,7.86-22.35,11.41l-7.35-45.26-7.64,10.65,7.62,48.03c.94,0,9.07-2.71,9.07-2.76h0c6.01-2.22,11.09-4.19,13.11-5.91l3.06,7.59,4.58-1.68h0c1.18-.49,7.79-3.25,10.94-7.15l4.19,10.3c3.89-1.38,7.89-2.76,8.87-3.15h0c6.9-2.56,12.57-4.78,13.8-6.65.44-.69,1.23-2.37,1.68-3.25l5.37-10.94-4.58-28.68-7.64,10.65Z"/><path class="cls-1" d="M140.79,139.83l-5.67-35.14-7.64,10.65,6.21,39.92,1.48-.59c-.25-2.42.05-3.3.94-5.13,1.18-2.46,4.68-9.61,4.68-9.71Z"/><path class="cls-1" d="M23.9,126.39l-6.54,1.58c-8.28,2-14.39,9.02-15.23,17.51l.07,9.96,16.22-5.25,1.24,8.01c.94,0,9.57-2.9,9.57-2.95,3.01-1.11,7.13-2.54,9.4-3.53,1.14-.49,1.67-.84,2.04-1.17.68-.6,1.24-1.32,1.72-2.09l.84-1.36s.02-.03.03-.05c1.49-2.4,2.37-5.14,2.69-7.95l.43-3.81s-9.25,5.94-19.35,9.49l-3.12-18.39ZM11.36,143.62c-.04-.28-.06-.55-.06-.82,0-2.74,1.98-5.14,4.75-5.6l1.18-.2.82,4.83-6.7,1.78Z"/><path class="cls-1" d="M68.82,42.41h6.37c1.66,0,3,1.34,3,3v6.37h-9.37v-9.37h0Z" transform="translate(0 94.19) rotate(-65.29)"/><path class="cls-1" d="M58.65,46.17h6.37c1.66,0,3,1.34,3,3v6.37h-9.37v-9.37h0Z" transform="translate(136.01 14.58) rotate(114.71)"/><path class="cls-1" d="M71.74,111.55h6.37c1.66,0,3,1.34,3,3v6.37h-9.37v-9.37h0Z" transform="translate(-61.11 137.08) rotate(-65.29)"/><path class="cls-1" d="M61.58,115.31h6.37c1.66,0,3,1.34,3,3v6.37h-9.37v-9.37h0Z" transform="translate(202.97 109.95) rotate(114.71)"/><path class="cls-1" d="M11.69,112.91h6.37c1.66,0,3,1.34,3,3v6.37h-9.37v-9.37h0Z" transform="translate(-97.3 83.32) rotate(-65.29)"/><path class="cls-1" d="M1.53,116.67h6.37c1.66,0,3,1.34,3,3v6.37H1.53v-9.37h0Z" transform="translate(119.06 166.43) rotate(114.71)"/><path class="cls-1" d="M81.66,86.01h6.37c1.66,0,3,1.34,3,3v6.37h-9.37v-9.37h0Z" transform="translate(-32.14 131.23) rotate(-65.29)"/><path class="cls-1" d="M34.31,156.04h6.37c1.66,0,3,1.34,3,3v6.37h-9.37v-9.37h0Z" transform="translate(-123.32 128.97) rotate(-65.29)"/><path class="cls-1" d="M25.9,108.72l6.86-10.66c1.49-.59,2.45-1.78,3.34-3.05l1.54.66-8.05,12.36c-1.31.48-2.49.59-3.68.7Z"/><path class="cls-1" d="M136.63,61.42c-1.47-6.76-7.08-6.71-12.27-6.76l-2.73,12.79c-1.05.52-8.75,3.51-11.85,4.4-4.71,1.53-11.31,4.06-13.41,4.06-.35,0-.57-.07-.64-.23l-.11-.26-1.63.79,4.46,10.43s6.18-.63,15.51-4.25c4.69-1.6,9.11-3.41,12.57-5.08,3.46-1.68,5.96-3.23,6.82-4.3,2.04-2.52,3.67-9.7,3.25-11.58Z"/><path class="cls-1" d="M113.46,60.43c.45-4,.91-8,1.36-12-1.6.63-4.18,1.42-7.33,1.33-5.6-.15-7.43-3.39-12.06-2.64-3.61.58-6.06,3.05-6.71,3.73-1.93,2-2.76,4.14-3.12,5.32l.17,8.91,2.09-1.08c.28-.15.45-.43.45-.75v-1.75c-.01-.33.14-.64.41-.84,1.85-1.36,3.52-2.29,4.77-2.9,1.29-.63,2.5-1.22,4.19-1.61,1.43-.33,5.48-1.06,5.93-.06.67,1.48-6.77,6.49-12.33,9.54-4.73,2.6-10.68,5.19-17.97,7.02l1.36-2.42,4.93-10.01s-15.19,8.11-26.24,11.6c1.69-3.08,2.85-8.74,2.49-10.39-1.47-6.76-7.08-6.71-12.27-6.76l-2.73,12.79c-1.05.52-8.75,3.51-11.85,4.4-.64.16-1.16.23-1.59.23-1.19,0-1.58-.52-1.66-.75.68-1,1.31-1.99,1.94-2.88l4.56-6.87c2.62-6.08-7.55-12.94-13.89-10.53-1.78,1.05-9.43,14.94-9.43,14.94,5.87-.21,9.7,1.68,12.27,4.19l-14.24,21.51c-2.42,3.65-1.47,8.62,2.2,11.03,8.39,5.51,16.56,6.05,17.03,6.05l6.97-10.53c-7.84-.3-13.93-3.39-17.27-5.55-1.65-1.06-2.1-3.27-1.03-4.91,2.47-3.77,6.01-9.06,9.23-13.91,1.26,2.3,1.89,4.4,2.26,5.4.94,2.62.21,1,1.47,4.25,0,0,1.78.26,5.4-1.1,3.17-1.08,6.23-2.26,8.94-3.43,2.72-1.17,5.1-2.34,6.94-3.39l3.46,8.6,4.88-1.78c3.19-1.18,6.15-2.3,8.57-3.34,2.25-.97,4.03-1.89,5.13-2.75,1.17,2.63,2.33,5.25,3.5,7.88,5.39-1.58,11.83-3.97,18.73-7.65,5.16-2.75,9.54-5.68,13.16-8.42,2.32-2.56,4.63-5.12,6.95-7.68Z"/><polygon class="cls-1" points="216.15 5.2 182.69 33.03 177.38 57.48 170.9 42.83 146.03 85.91 157.49 112.43 205.7 42.83 230.43 0 216.15 5.2"/><path class="cls-1" d="M207.6,85.91l-15.31,26.51-26.4,13.1-12.08,20.91c-4.81,1.24-8.81,4.5-11.06,8.81h-1.96l64.91-112.43,1.49,33.94-18.43,9.15h18.83Z"/></g></svg>